G04 Layer: TopSilkscreenLayer*
G04 EasyEDA v6.5.42, 2024-03-29 10:36:03*
G04 c5ab252c28e54aca980d21198c282c72,1c81c61d082a4d45aadf05aca8bab00c,10*
G04 Gerber Generator version 0.2*
G04 Scale: 100 percent, Rotated: No, Reflected: No *
G04 Dimensions in millimeters *
G04 leading zeros omitted , absolute positions ,4 integer and 5 decimal *
%FSLAX45Y45*%
%MOMM*%

%ADD10C,0.2032*%
%ADD11C,0.1524*%
%ADD12C,0.2540*%
%ADD13C,0.1500*%
%ADD14C,0.3000*%
%ADD15C,0.0153*%

%LPD*%
G36*
X691896Y5396992D02*
G01*
X682752Y5395569D01*
X675487Y5391556D01*
X670763Y5385409D01*
X669036Y5377688D01*
X670407Y5370525D01*
X673963Y5365191D01*
X678789Y5361381D01*
X684022Y5358638D01*
X699922Y5351526D01*
X703986Y5348884D01*
X706678Y5345226D01*
X707644Y5340096D01*
X706475Y5334914D01*
X703173Y5330901D01*
X697992Y5328310D01*
X691134Y5327396D01*
X685292Y5328056D01*
X679754Y5329885D01*
X674725Y5332882D01*
X670306Y5336794D01*
X665226Y5330952D01*
X670458Y5326481D01*
X676554Y5323027D01*
X683463Y5320792D01*
X691134Y5320030D01*
X696569Y5320436D01*
X701446Y5321655D01*
X705713Y5323535D01*
X709269Y5326075D01*
X712165Y5329123D01*
X714298Y5332679D01*
X715568Y5336590D01*
X716026Y5340858D01*
X714806Y5348020D01*
X711504Y5353405D01*
X706577Y5357520D01*
X700532Y5360670D01*
X685546Y5367274D01*
X681532Y5369814D01*
X678586Y5373319D01*
X677418Y5378196D01*
X678484Y5382971D01*
X681431Y5386578D01*
X686003Y5388864D01*
X691896Y5389626D01*
X696976Y5389118D01*
X701497Y5387695D01*
X705561Y5385460D01*
X709168Y5382514D01*
X713486Y5387848D01*
X709218Y5391505D01*
X704138Y5394401D01*
X698296Y5396331D01*
G37*
G36*
X721614Y5395722D02*
G01*
X721614Y5388610D01*
X744220Y5388610D01*
X744220Y5321300D01*
X752856Y5321300D01*
X752856Y5388610D01*
X775462Y5388610D01*
X775462Y5395722D01*
G37*
G36*
X788924Y5395722D02*
G01*
X788924Y5388864D01*
X806704Y5388864D01*
X813003Y5388356D01*
X818489Y5386832D01*
X823061Y5384342D01*
X826820Y5380939D01*
X829665Y5376621D01*
X831748Y5371490D01*
X832967Y5365597D01*
X833374Y5358892D01*
X832967Y5352084D01*
X831748Y5346039D01*
X829665Y5340807D01*
X826820Y5336387D01*
X823061Y5332882D01*
X818489Y5330291D01*
X813003Y5328716D01*
X806704Y5328158D01*
X797560Y5328158D01*
X797560Y5388864D01*
X788924Y5388864D01*
X788924Y5321300D01*
X807720Y5321300D01*
X813104Y5321604D01*
X818032Y5322468D01*
X822502Y5323890D01*
X826566Y5325872D01*
X830122Y5328361D01*
X833272Y5331307D01*
X835914Y5334812D01*
X838098Y5338775D01*
X839774Y5343144D01*
X841044Y5347970D01*
X841756Y5353253D01*
X842010Y5358892D01*
X841756Y5364530D01*
X841044Y5369712D01*
X839774Y5374487D01*
X838047Y5378805D01*
X835863Y5382666D01*
X833170Y5386070D01*
X830021Y5388965D01*
X826414Y5391353D01*
X822299Y5393232D01*
X817727Y5394604D01*
X812698Y5395468D01*
X807212Y5395722D01*
G37*
G36*
X858519Y5395722D02*
G01*
X858519Y5388864D01*
X878840Y5388864D01*
X886714Y5388203D01*
X892454Y5386070D01*
X895959Y5382209D01*
X897128Y5376418D01*
X896061Y5371134D01*
X892708Y5367121D01*
X886815Y5364581D01*
X878332Y5363718D01*
X866902Y5363718D01*
X866902Y5388864D01*
X858519Y5388864D01*
X858519Y5357368D01*
X880364Y5357368D01*
X889355Y5356504D01*
X895959Y5353913D01*
X900023Y5349544D01*
X901446Y5343398D01*
X900023Y5336489D01*
X895858Y5331663D01*
X889253Y5328818D01*
X880364Y5327904D01*
X866902Y5327904D01*
X866902Y5357368D01*
X858519Y5357368D01*
X858519Y5321300D01*
X881634Y5321300D01*
X887577Y5321655D01*
X893013Y5322620D01*
X897788Y5324348D01*
X901903Y5326684D01*
X905256Y5329783D01*
X907745Y5333492D01*
X909269Y5337962D01*
X909828Y5343144D01*
X908710Y5349951D01*
X905510Y5355183D01*
X900633Y5358841D01*
X894334Y5360924D01*
X894334Y5361432D01*
X899058Y5363870D01*
X902462Y5367528D01*
X904544Y5372150D01*
X905256Y5377434D01*
X904798Y5381955D01*
X903427Y5385765D01*
X901242Y5388914D01*
X898245Y5391454D01*
X894587Y5393334D01*
X890269Y5394706D01*
X885342Y5395468D01*
X879856Y5395722D01*
G37*
G36*
X912876Y5395722D02*
G01*
X935228Y5350510D01*
X935228Y5321300D01*
X943356Y5321300D01*
X943356Y5350510D01*
X965708Y5395722D01*
X957071Y5395722D01*
X939546Y5357876D01*
X939292Y5357876D01*
X921766Y5395722D01*
G37*
G36*
X699008Y5574792D02*
G01*
X692200Y5574131D01*
X686003Y5572099D01*
X680466Y5568848D01*
X675690Y5564428D01*
X671830Y5558891D01*
X668934Y5552287D01*
X667105Y5544718D01*
X666496Y5536184D01*
X667105Y5527700D01*
X668883Y5520131D01*
X671728Y5513578D01*
X675538Y5508040D01*
X680212Y5503672D01*
X685698Y5500471D01*
X691794Y5498490D01*
X698500Y5497830D01*
X705307Y5498541D01*
X711250Y5500573D01*
X716483Y5503926D01*
X721106Y5508498D01*
X716280Y5513832D01*
X712520Y5510123D01*
X708456Y5507431D01*
X703935Y5505754D01*
X698754Y5505196D01*
X693572Y5505754D01*
X688949Y5507380D01*
X684936Y5510072D01*
X681532Y5513679D01*
X678789Y5518200D01*
X676808Y5523534D01*
X675538Y5529630D01*
X675132Y5536438D01*
X675589Y5543245D01*
X676808Y5549341D01*
X678891Y5554624D01*
X681634Y5559094D01*
X685088Y5562650D01*
X689152Y5565241D01*
X693826Y5566867D01*
X699008Y5567426D01*
X703681Y5566918D01*
X707796Y5565495D01*
X711403Y5563260D01*
X714502Y5560314D01*
X719328Y5565648D01*
X715619Y5569102D01*
X710996Y5572048D01*
X705408Y5574030D01*
G37*
G36*
X901700Y5574792D02*
G01*
X896874Y5574487D01*
X892302Y5573572D01*
X888085Y5572099D01*
X884123Y5570067D01*
X880567Y5567527D01*
X877366Y5564428D01*
X874623Y5560872D01*
X872286Y5556808D01*
X870407Y5552287D01*
X869035Y5547309D01*
X868222Y5541975D01*
X867918Y5536184D01*
X868527Y5527700D01*
X870356Y5520131D01*
X873252Y5513578D01*
X877214Y5508040D01*
X881989Y5503672D01*
X887628Y5500471D01*
X893978Y5498490D01*
X900937Y5497830D01*
X907999Y5498439D01*
X914247Y5500217D01*
X919581Y5502859D01*
X923798Y5506212D01*
X923798Y5537200D01*
X899668Y5537200D01*
X899668Y5530088D01*
X915924Y5530088D01*
X915924Y5509768D01*
X913180Y5507888D01*
X909777Y5506415D01*
X905865Y5505500D01*
X901700Y5505196D01*
X896010Y5505754D01*
X891032Y5507380D01*
X886714Y5510072D01*
X883107Y5513679D01*
X880313Y5518200D01*
X878230Y5523534D01*
X876960Y5529630D01*
X876553Y5536438D01*
X877011Y5543245D01*
X878332Y5549341D01*
X880516Y5554624D01*
X883412Y5559094D01*
X887069Y5562650D01*
X891336Y5565241D01*
X896264Y5566867D01*
X901700Y5567426D01*
X907084Y5566867D01*
X911504Y5565292D01*
X915111Y5563057D01*
X918210Y5560314D01*
X922782Y5565648D01*
X919073Y5569000D01*
X914450Y5571947D01*
X908659Y5574030D01*
G37*
G36*
X735076Y5573522D02*
G01*
X735076Y5499100D01*
X743712Y5499100D01*
X743712Y5534660D01*
X779526Y5534660D01*
X779526Y5499100D01*
X787908Y5499100D01*
X787908Y5573522D01*
X779526Y5573522D01*
X779526Y5542026D01*
X743712Y5542026D01*
X743712Y5573522D01*
G37*
G36*
X808482Y5573522D02*
G01*
X808482Y5566664D01*
X830071Y5566664D01*
X837996Y5565952D01*
X843838Y5563616D01*
X847394Y5559399D01*
X848614Y5552948D01*
X847394Y5546344D01*
X843838Y5541772D01*
X837996Y5539079D01*
X830071Y5538216D01*
X816864Y5538216D01*
X816864Y5566664D01*
X808482Y5566664D01*
X808482Y5499100D01*
X816864Y5499100D01*
X816864Y5531104D01*
X830834Y5531104D01*
X849376Y5499100D01*
X859028Y5499100D01*
X839724Y5532120D01*
X846836Y5534710D01*
X852271Y5539028D01*
X855776Y5545074D01*
X856996Y5552948D01*
X856487Y5558231D01*
X855116Y5562600D01*
X852830Y5566156D01*
X849782Y5568950D01*
X846023Y5571032D01*
X841654Y5572455D01*
X836726Y5573268D01*
X831342Y5573522D01*
G37*
D10*
X1187957Y4063492D02*
G01*
X1187957Y3897376D01*
X1104900Y3980434D02*
G01*
X1271270Y3980434D01*
X1358900Y3967734D02*
G01*
X1525270Y3967734D01*
X1124457Y5460492D02*
G01*
X1124457Y5294376D01*
X1041400Y5377434D02*
G01*
X1207770Y5377434D01*
X1333500Y5390134D02*
G01*
X1499870Y5390134D01*
D11*
X607313Y3874515D02*
G01*
X664463Y3874515D01*
X633221Y3832860D01*
X648970Y3832860D01*
X659129Y3827779D01*
X664463Y3822700D01*
X669544Y3806952D01*
X669544Y3796537D01*
X664463Y3781044D01*
X654050Y3770629D01*
X638555Y3765550D01*
X622807Y3765550D01*
X607313Y3770629D01*
X601979Y3775710D01*
X596900Y3786123D01*
X709168Y3791457D02*
G01*
X703834Y3786123D01*
X709168Y3781044D01*
X714247Y3786123D01*
X709168Y3791457D01*
X758952Y3874515D02*
G01*
X816102Y3874515D01*
X784860Y3832860D01*
X800607Y3832860D01*
X811021Y3827779D01*
X816102Y3822700D01*
X821436Y3806952D01*
X821436Y3796537D01*
X816102Y3781044D01*
X805687Y3770629D01*
X790194Y3765550D01*
X774700Y3765550D01*
X758952Y3770629D01*
X753871Y3775710D01*
X748537Y3786123D01*
X855726Y3874515D02*
G01*
X897128Y3765550D01*
X938784Y3874515D02*
G01*
X897128Y3765550D01*
X508000Y5919215D02*
G01*
X508000Y5810250D01*
X508000Y5810250D02*
G01*
X570229Y5810250D01*
X604520Y5919215D02*
G01*
X604520Y5810250D01*
X638810Y5919215D02*
G01*
X638810Y5810250D01*
X704342Y5919215D02*
G01*
X693928Y5914136D01*
X683513Y5903721D01*
X678434Y5893307D01*
X673100Y5877560D01*
X673100Y5851652D01*
X678434Y5836157D01*
X683513Y5825744D01*
X693928Y5815329D01*
X704342Y5810250D01*
X725170Y5810250D01*
X735584Y5815329D01*
X745997Y5825744D01*
X751078Y5836157D01*
X756412Y5851652D01*
X756412Y5877560D01*
X751078Y5893307D01*
X745997Y5903721D01*
X735584Y5914136D01*
X725170Y5919215D01*
X704342Y5919215D01*
X790702Y5919215D02*
G01*
X790702Y5810250D01*
X790702Y5919215D02*
G01*
X863345Y5810250D01*
X863345Y5919215D02*
G01*
X863345Y5810250D01*
X482600Y5766815D02*
G01*
X482600Y5657850D01*
X482600Y5766815D02*
G01*
X529336Y5766815D01*
X544829Y5761736D01*
X550163Y5756402D01*
X555244Y5745987D01*
X555244Y5735573D01*
X550163Y5725160D01*
X544829Y5720079D01*
X529336Y5715000D01*
X482600Y5715000D02*
G01*
X529336Y5715000D01*
X544829Y5709665D01*
X550163Y5704586D01*
X555244Y5694171D01*
X555244Y5678423D01*
X550163Y5668010D01*
X544829Y5662929D01*
X529336Y5657850D01*
X482600Y5657850D01*
X631189Y5766815D02*
G01*
X589534Y5657850D01*
X631189Y5766815D02*
G01*
X672845Y5657850D01*
X605281Y5694171D02*
G01*
X657097Y5694171D01*
X743457Y5766815D02*
G01*
X743457Y5657850D01*
X707136Y5766815D02*
G01*
X779779Y5766815D01*
X850392Y5766815D02*
G01*
X850392Y5657850D01*
X814070Y5766815D02*
G01*
X886713Y5766815D01*
X609600Y3722115D02*
G01*
X609600Y3613150D01*
X609600Y3722115D02*
G01*
X656336Y3722115D01*
X671829Y3717036D01*
X677163Y3711702D01*
X682244Y3701287D01*
X682244Y3685794D01*
X677163Y3675379D01*
X671829Y3670300D01*
X656336Y3664965D01*
X609600Y3664965D01*
X716534Y3722115D02*
G01*
X742695Y3613150D01*
X768604Y3722115D02*
G01*
X742695Y3613150D01*
X768604Y3722115D02*
G01*
X794512Y3613150D01*
X820420Y3722115D02*
G01*
X794512Y3613150D01*
X854710Y3722115D02*
G01*
X854710Y3613150D01*
X854710Y3722115D02*
G01*
X901700Y3722115D01*
X917194Y3717036D01*
X922273Y3711702D01*
X927607Y3701287D01*
X927607Y3690873D01*
X922273Y3680460D01*
X917194Y3675379D01*
X901700Y3670300D01*
X854710Y3670300D01*
X891286Y3670300D02*
G01*
X927607Y3613150D01*
G36*
X899820Y3954424D02*
G01*
X899718Y3913784D01*
X945438Y3913784D01*
X945794Y3953967D01*
G37*
G36*
X899007Y4214266D02*
G01*
X898855Y4173575D01*
X944575Y4173575D01*
X944981Y4213809D01*
G37*
G36*
X1297584Y4269181D02*
G01*
X1297584Y4223461D01*
X1337767Y4223105D01*
X1338224Y4269079D01*
G37*
G36*
X1557375Y4270044D02*
G01*
X1557375Y4224324D01*
X1597609Y4223918D01*
X1598066Y4269892D01*
G37*
D12*
X1562023Y5753100D02*
G01*
X1511223Y5753100D01*
X1511223Y5562600D01*
X1015923Y5562600D01*
X1015923Y5753100D01*
X977823Y5753100D01*
X969919Y5816600D02*
G01*
X1020719Y5816600D01*
X1020719Y5892800D01*
X1236619Y5892800D01*
X1236619Y5943600D01*
X1562023Y5816600D02*
G01*
X1511223Y5816600D01*
X1511223Y5892800D01*
X1295323Y5892800D01*
X1295323Y5943600D01*
X1569923Y5498490D02*
G01*
X969924Y5498490D01*
X969924Y5948502D01*
X1569923Y5948502D01*
X1569923Y5498490D01*
D13*
X460621Y5404388D02*
G01*
X461617Y5404388D01*
X494621Y5371383D01*
X460621Y5336385D02*
G01*
X460621Y5337383D01*
X494621Y5371383D01*
X460621Y5336385D02*
G01*
X460621Y5404388D01*
X458617Y5296377D02*
G01*
X343616Y5296377D01*
X458617Y5446389D02*
G01*
X343616Y5446389D01*
X343616Y5296387D02*
G01*
X343616Y5444380D01*
X496618Y5446621D02*
G01*
X601629Y5446621D01*
X631624Y5406613D02*
G01*
X631624Y5416616D01*
X601629Y5446621D01*
X631624Y5336618D02*
G01*
X631624Y5406613D01*
X631624Y5336618D02*
G01*
X631624Y5326603D01*
X601629Y5296608D01*
X496618Y5296608D02*
G01*
X601629Y5296608D01*
X460621Y5371383D02*
G01*
X494621Y5371383D01*
D10*
X1524000Y3860800D02*
G01*
X1524000Y3609339D01*
X1016000Y3609339D01*
X1016000Y3860800D01*
X1524000Y3860800D01*
D11*
X175239Y5405678D02*
G01*
X175239Y5309791D01*
X307360Y5309791D01*
X307360Y5405678D01*
X175239Y5490921D02*
G01*
X175239Y5586808D01*
X307360Y5586808D01*
X307360Y5490921D01*
X1102339Y4770678D02*
G01*
X1102339Y4674791D01*
X1234460Y4674791D01*
X1234460Y4770678D01*
X1102339Y4855921D02*
G01*
X1102339Y4951808D01*
X1234460Y4951808D01*
X1234460Y4855921D01*
X1158260Y4551121D02*
G01*
X1158260Y4647008D01*
X1026139Y4647008D01*
X1026139Y4551121D01*
X1158260Y4465878D02*
G01*
X1158260Y4369991D01*
X1026139Y4369991D01*
X1026139Y4465878D01*
X1196360Y5173421D02*
G01*
X1196360Y5269308D01*
X1064239Y5269308D01*
X1064239Y5173421D01*
X1196360Y5088178D02*
G01*
X1196360Y4992291D01*
X1064239Y4992291D01*
X1064239Y5088178D01*
D13*
X460496Y5582338D02*
G01*
X461487Y5582338D01*
X494497Y5549336D01*
X460496Y5514334D02*
G01*
X460496Y5515335D01*
X494497Y5549336D01*
X460496Y5514334D02*
G01*
X460496Y5582338D01*
X458492Y5474332D02*
G01*
X343486Y5474332D01*
X458492Y5624344D02*
G01*
X343486Y5624344D01*
X343486Y5474337D02*
G01*
X343486Y5622335D01*
X496493Y5624573D02*
G01*
X601505Y5624573D01*
X631499Y5584563D02*
G01*
X631499Y5594565D01*
X601505Y5624573D01*
X631499Y5514571D02*
G01*
X631499Y5584563D01*
X631499Y5514571D02*
G01*
X631499Y5504555D01*
X601505Y5474561D01*
X496493Y5474561D02*
G01*
X601505Y5474561D01*
X460496Y5549336D02*
G01*
X494497Y5549336D01*
D12*
X1269301Y4307177D02*
G01*
X1269301Y4227174D01*
X1158326Y4338162D02*
G01*
X1238323Y4338162D01*
X1158326Y4196196D02*
G01*
X1238323Y4196196D01*
X1100736Y4338744D02*
G01*
X1020737Y4338744D01*
X989754Y4307761D02*
G01*
X989754Y4227763D01*
X1100736Y4196783D02*
G01*
X1020737Y4196783D01*
D11*
X736092Y3921379D02*
G01*
X736092Y4206620D01*
X907318Y3921379D02*
G01*
X388081Y3921379D01*
X388371Y4181561D02*
G01*
X387703Y4205483D01*
X388081Y3921379D02*
G01*
X387413Y3945300D01*
X907318Y4206620D02*
G01*
X388081Y4206620D01*
X1305179Y4432807D02*
G01*
X1590420Y4432807D01*
X1305179Y4261581D02*
G01*
X1305179Y4780818D01*
X1565361Y4780528D02*
G01*
X1589283Y4781196D01*
X1305179Y4780818D02*
G01*
X1329100Y4781486D01*
X1590420Y4261581D02*
G01*
X1590420Y4780818D01*
X1524020Y5157718D02*
G01*
X1346179Y5157718D01*
X1524020Y4849881D02*
G01*
X1346179Y4849881D01*
D12*
X510133Y5196697D02*
G01*
X696424Y5196697D01*
X138295Y4302699D02*
G01*
X138295Y5196697D01*
X286425Y5196697D01*
X510098Y4302699D02*
G01*
X696460Y4302699D01*
X138295Y4302699D02*
G01*
X286461Y4302699D01*
G75*
G01*
X989749Y4307761D02*
G02*
X1020732Y4338744I30983J0D01*
G75*
G01*
X1020732Y4196778D02*
G02*
X989749Y4227764I0J30983D01*
G75*
G01*
X1238319Y4338163D02*
G02*
X1269301Y4307177I0J-30983D01*
G75*
G01*
X1269301Y4227180D02*
G02*
X1238319Y4196197I-30982J0D01*
D14*
G75*
G01
X1580261Y4836973D02*
G03X1580261Y4836973I-15011J0D01*
M02*
