G04 Layer: TopLayer*
G04 EasyEDA v6.5.42, 2024-03-29 10:36:03*
G04 c5ab252c28e54aca980d21198c282c72,1c81c61d082a4d45aadf05aca8bab00c,10*
G04 Gerber Generator version 0.2*
G04 Scale: 100 percent, Rotated: No, Reflected: No *
G04 Dimensions in millimeters *
G04 leading zeros omitted , absolute positions ,4 integer and 5 decimal *
%FSLAX45Y45*%
%MOMM*%

%AMMACRO1*21,1,$1,$2,0,0,$3*%
%ADD10C,0.2540*%
%ADD11R,0.8000X0.8000*%
%ADD12MACRO1,0.864X0.8065X0.0000*%
%ADD13R,0.8640X0.8065*%
%ADD14R,0.8000X0.9000*%
%ADD15R,2.0000X2.0000*%
%ADD16R,1.0720X0.5320*%
%ADD17R,1.3000X0.3000*%
%ADD18C,1.6000*%
%ADD19R,1.5748X1.5748*%
%ADD20C,1.5748*%
%ADD21O,1.7999964X1.1999976*%
%ADD22O,1.9999959999999999X1.1999976*%
%ADD23C,0.6100*%

%LPD*%
D10*
X1468501Y5098801D02*
G01*
X1468323Y5098623D01*
X1468323Y4889632D01*
X1447800Y4869108D01*
X1169923Y5778505D02*
G01*
X1468501Y5479928D01*
X1468501Y5098801D01*
X1550009Y5098801D02*
G01*
X1468501Y5098801D01*
X1447800Y4741194D02*
G01*
X1447800Y4869108D01*
X1550009Y5003805D02*
G01*
X1631518Y5003805D01*
X1369923Y5778505D02*
G01*
X1631670Y5516758D01*
X1631670Y5003957D01*
X1631518Y5003805D01*
X1092200Y4399056D02*
G01*
X1168400Y4475256D01*
X1168400Y4737968D01*
X1092200Y4399056D02*
G01*
X1092200Y4364944D01*
X1092200Y4433168D02*
G01*
X1092200Y4399056D01*
X1026337Y4267205D02*
G01*
X1026337Y4299082D01*
X1092200Y4364944D01*
X1026337Y4267205D02*
G01*
X992378Y4267205D01*
X1060297Y4267205D02*
G01*
X1026337Y4267205D01*
X895095Y5143911D02*
G01*
X996950Y5143911D01*
X1059179Y5206141D01*
X818286Y5182316D02*
G01*
X856691Y5143911D01*
X895095Y5143911D01*
X895095Y5143911D02*
G01*
X895095Y5084805D01*
X1130300Y5206141D02*
G01*
X1059179Y5206141D01*
X895121Y5054808D02*
G01*
X895095Y5054833D01*
X895095Y5084805D01*
X895121Y4414804D02*
G01*
X988034Y4414804D01*
X895121Y4355724D02*
G01*
X903859Y4355724D01*
X992378Y4267205D01*
X818286Y4317293D02*
G01*
X856716Y4355724D01*
X895121Y4355724D01*
X895121Y4355724D02*
G01*
X958519Y4355724D01*
X988034Y4385238D01*
X988034Y4414804D01*
X895121Y4414804D02*
G01*
X895121Y4444801D01*
X562610Y5372384D02*
G01*
X630529Y5372384D01*
X630529Y5372384D02*
G01*
X644728Y5358185D01*
X1182725Y5358185D01*
X1415643Y5125267D01*
X1415643Y5017749D01*
X1401698Y5003805D01*
X1320190Y5003805D02*
G01*
X1401698Y5003805D01*
X1143000Y3733805D02*
G01*
X1143000Y3840459D01*
X1234262Y4267205D02*
G01*
X1234262Y3931721D01*
X1143000Y3840459D01*
X1234262Y4267205D02*
G01*
X1268221Y4267205D01*
X1200302Y4267205D02*
G01*
X1234262Y4267205D01*
X1143000Y3733805D02*
G01*
X1036345Y3733805D01*
X867689Y4064005D02*
G01*
X867689Y3936090D01*
X867689Y3936090D02*
G01*
X1036345Y3767434D01*
X1036345Y3733805D01*
X1447800Y4301215D02*
G01*
X1302232Y4301215D01*
X1268221Y4267205D01*
X1320190Y5098801D02*
G01*
X1238681Y5098801D01*
X895121Y4974798D02*
G01*
X988034Y4974798D01*
X988034Y4974798D02*
G01*
X1041527Y5028290D01*
X1041527Y5101874D01*
X1070457Y5130805D01*
X1206677Y5130805D01*
X1238681Y5098801D01*
X880110Y4974798D02*
G01*
X895121Y4974798D01*
X880110Y4974798D02*
G01*
X865098Y4974798D01*
X730910Y4525396D02*
G01*
X555625Y4350110D01*
X555625Y4287829D01*
X459714Y4191919D01*
X427710Y4191919D01*
X802030Y4525396D02*
G01*
X730910Y4525396D01*
X730910Y4525396D02*
G01*
X241300Y5015006D01*
X241300Y5372968D01*
X427710Y4064005D02*
G01*
X427710Y4191919D01*
X802030Y4525396D02*
G01*
X802030Y4974620D01*
X802208Y4974798D01*
X802182Y4524811D02*
G01*
X802030Y4524964D01*
X802030Y4525396D01*
X865098Y4974798D02*
G01*
X895095Y5004795D01*
X854329Y4974798D02*
G01*
X802208Y4974798D01*
X854329Y4974798D02*
G01*
X865098Y4974798D01*
X895095Y4524811D02*
G01*
X802182Y4524811D01*
X895121Y4494789D02*
G01*
X895095Y4494814D01*
X895095Y4524811D01*
X402589Y5523641D02*
G01*
X402589Y5439719D01*
X402717Y5439592D01*
X402589Y5549651D02*
G01*
X402589Y5523641D01*
X402589Y5523641D02*
G01*
X312420Y5523641D01*
X241300Y5523641D02*
G01*
X312420Y5523641D01*
X402717Y5371698D02*
G01*
X402717Y5439592D01*
X1168400Y4888641D02*
G01*
X1239520Y4888641D01*
X1320190Y4908809D02*
G01*
X1259687Y4908809D01*
X1239520Y4888641D01*
X1092200Y4583841D02*
G01*
X1021079Y4583841D01*
X895121Y4574799D02*
G01*
X1012037Y4574799D01*
X1021079Y4583841D01*
X1130300Y5055468D02*
G01*
X1130300Y4987244D01*
X895121Y4874798D02*
G01*
X988034Y4874798D01*
X988034Y4874798D02*
G01*
X1100480Y4987244D01*
X1130300Y4987244D01*
X1550009Y4908809D02*
G01*
X1631518Y4908809D01*
X562482Y5550336D02*
G01*
X630402Y5550336D01*
X1107973Y5416758D02*
G01*
X763981Y5416758D01*
X630402Y5550336D01*
X1631518Y4908809D02*
G01*
X1631518Y4664486D01*
X1580134Y4613102D01*
X1319707Y4613102D01*
X1279702Y4653107D01*
X1279702Y4742362D01*
D11*
G01*
X402717Y5371693D03*
G01*
X562610Y5372379D03*
D12*
G01*
X241300Y5372975D03*
D13*
G01*
X241300Y5523636D03*
D12*
G01*
X1168400Y4737975D03*
D13*
G01*
X1168400Y4888636D03*
D12*
G01*
X1092200Y4583824D03*
D13*
G01*
X1092200Y4433163D03*
D12*
G01*
X1130300Y5206124D03*
D13*
G01*
X1130300Y5055463D03*
D11*
G01*
X562482Y5550331D03*
G01*
X402589Y5549645D03*
D14*
G01*
X1200302Y4267200D03*
G01*
X1060297Y4267200D03*
D15*
G01*
X427710Y4064000D03*
G01*
X867689Y4064000D03*
G01*
X1447800Y4741189D03*
G01*
X1447800Y4301210D03*
D16*
G01*
X1550009Y4908804D03*
G01*
X1550009Y5003800D03*
G01*
X1550009Y5098795D03*
G01*
X1320190Y5098795D03*
G01*
X1320190Y5003800D03*
G01*
X1320190Y4908804D03*
D17*
G01*
X895121Y4924805D03*
G01*
X895121Y4874793D03*
G01*
X895121Y4824806D03*
G01*
X895121Y4774793D03*
G01*
X895121Y4724806D03*
G01*
X895121Y4674793D03*
G01*
X895121Y4624831D03*
G01*
X895121Y4574794D03*
G01*
X895095Y5084800D03*
G01*
X895121Y5054803D03*
G01*
X895095Y5004790D03*
G01*
X895121Y4974793D03*
G01*
X895095Y4524806D03*
G01*
X895121Y4494784D03*
G01*
X895121Y4444796D03*
G01*
X895121Y4414799D03*
D18*
G01*
X1369923Y5778500D03*
G01*
X1169923Y5778500D03*
D19*
G01*
X1143000Y3733800D03*
D20*
G01*
X1397000Y3733800D03*
D21*
G01*
X400304Y4317288D03*
D22*
G01*
X818286Y4317288D03*
G01*
X818286Y5182311D03*
D21*
G01*
X400304Y5182311D03*
D23*
G01*
X1107973Y5416753D03*
G01*
X1279702Y4742357D03*
M02*
