G04 Layer: TopSolderMaskLayer*
G04 EasyEDA v6.5.42, 2024-03-29 10:36:03*
G04 c5ab252c28e54aca980d21198c282c72,1c81c61d082a4d45aadf05aca8bab00c,10*
G04 Gerber Generator version 0.2*
G04 Scale: 100 percent, Rotated: No, Reflected: No *
G04 Dimensions in millimeters *
G04 leading zeros omitted , absolute positions ,4 integer and 5 decimal *
%FSLAX45Y45*%
%MOMM*%

%AMMACRO1*1,1,$1,$2,$3*1,1,$1,$4,$5*1,1,$1,0-$2,0-$3*1,1,$1,0-$4,0-$5*20,1,$1,$2,$3,$4,$5,0*20,1,$1,$4,$5,0-$2,0-$3,0*20,1,$1,0-$2,0-$3,0-$4,0-$5,0*20,1,$1,0-$4,0-$5,$2,$3,0*4,1,4,$2,$3,$4,$5,0-$2,0-$3,0-$4,0-$5,$2,$3,0*%
%ADD10C,1.7016*%
%ADD11MACRO1,0.1016X0.4X0.4X0.4X-0.4*%
%ADD12MACRO1,0.1016X0.7874X0.7874X0.7874X-0.7874*%
%ADD13C,1.6764*%
%ADD14MACRO1,0.1016X-0.432X0.4032X0.432X0.4032*%
%ADD15MACRO1,0.1016X-0.432X-0.4032X0.432X-0.4032*%
%ADD16R,0.9656X0.9081*%
%ADD17MACRO1,0.1016X-0.4X0.45X0.4X0.45*%
%ADD18MACRO1,0.1016X-1X1X1X1*%
%ADD19MACRO1,0.1016X1X1X1X-1*%
%ADD20R,1.1736X0.6336*%
%ADD21MACRO1,0.1016X0.65X0.15X0.65X-0.15*%
%ADD22O,1.9015964X1.3015976000000002*%
%ADD23O,2.1015960000000002X1.3015976000000002*%

%LPD*%
D10*
G01*
X1369923Y5778500D03*
G01*
X1169923Y5778500D03*
D11*
G01*
X402719Y5371683D03*
G01*
X562620Y5372384D03*
D12*
G01*
X1143000Y3733800D03*
D13*
G01*
X1397000Y3733800D03*
D14*
G01*
X241300Y5372975D03*
D15*
G01*
X241300Y5523624D03*
D14*
G01*
X1168400Y4737975D03*
D15*
G01*
X1168400Y4888624D03*
D16*
G01*
X1092200Y4583836D03*
G01*
X1092200Y4433163D03*
G01*
X1130300Y5206136D03*
G01*
X1130300Y5055463D03*
D11*
G01*
X562493Y5550336D03*
G01*
X402592Y5549635D03*
D17*
G01*
X1200299Y4267200D03*
G01*
X1060300Y4267200D03*
D18*
G01*
X427700Y4064000D03*
G01*
X867699Y4064000D03*
D19*
G01*
X1447800Y4741199D03*
G01*
X1447800Y4301200D03*
D20*
G01*
X1550009Y4908804D03*
G01*
X1550009Y5003800D03*
G01*
X1550009Y5098795D03*
G01*
X1320190Y5098795D03*
G01*
X1320190Y5003800D03*
G01*
X1320190Y4908804D03*
D21*
G01*
X895118Y4924804D03*
G01*
X895118Y4874792D03*
G01*
X895121Y4824804D03*
G01*
X895118Y4774792D03*
G01*
X895121Y4724805D03*
G01*
X895118Y4674792D03*
G01*
X895118Y4624830D03*
G01*
X895118Y4574792D03*
G01*
X895106Y5084794D03*
G01*
X895121Y5054796D03*
G01*
X895106Y5004793D03*
G01*
X895108Y4974798D03*
G01*
X895106Y4524801D03*
G01*
X895108Y4494789D03*
G01*
X895123Y4444799D03*
G01*
X895123Y4414799D03*
D22*
G01*
X400304Y4317288D03*
D23*
G01*
X818286Y4317288D03*
G01*
X818286Y5182311D03*
D22*
G01*
X400304Y5182311D03*
M02*
